<svg xmlns="http://www.w3.org/2000/svg" viewBox="0 0 1500 1500" width="32" height="32">
  <style>
    .logo-fill { fill: #082660; }
    @media (prefers-color-scheme: dark) {
      .logo-fill { fill: #FFFFFF; }
    }
  </style>
  <path class="logo-fill" d="M 749.926 73.082 L 891.684 150.633 L 749.926 228.176 L 608.168 150.633 Z M 599.984 163.363 L 645.941 188.504 L 742.375 241.258 L 742.375 396.352 L 624.691 331.977 L 609.344 340.785 L 746.305 415.715 C 746.375 415.754 746.453 415.766 746.531 415.801 C 746.816 415.93 747.109 416.039 747.406 416.148 C 747.609 416.215 747.797 416.328 748.008 416.383 C 748.637 416.547 749.281 416.637 749.926 416.637 C 750.57 416.637 751.215 416.547 751.84 416.383 C 752.047 416.328 752.242 416.215 752.445 416.148 C 752.742 416.039 753.031 415.93 753.316 415.801 C 753.391 415.766 753.477 415.754 753.547 415.715 L 890.508 340.785 L 875.16 331.977 L 757.473 396.352 L 757.473 241.258 L 845.531 193.086 L 899.867 163.363 L 899.867 287.828 L 914.965 296.496 L 914.965 150.633 C 914.965 149.98 914.871 149.348 914.711 148.738 C 914.711 148.711 914.707 148.688 914.703 148.664 C 914.543 148.07 914.301 147.512 914.012 146.984 C 913.988 146.941 913.973 146.898 913.949 146.863 C 913.652 146.352 913.293 145.875 912.883 145.445 C 912.836 145.398 912.801 145.359 912.762 145.313 C 912.352 144.902 911.879 144.535 911.371 144.219 C 911.332 144.195 911.305 144.16 911.262 144.137 C 911.242 144.125 911.211 144.121 911.188 144.109 C 911.137 144.074 911.094 144.035 911.039 144.008 L 753.547 57.859 C 751.293 56.621 748.559 56.621 746.305 57.859 L 588.816 144.008 C 588.758 144.035 588.715 144.074 588.66 144.109 C 588.633 144.121 588.609 144.125 588.586 144.137 C 588.547 144.16 588.52 144.195 588.48 144.219 C 587.973 144.535 587.5 144.902 587.09 145.313 C 587.047 145.359 587.016 145.398 586.973 145.445 C 586.563 145.875 586.199 146.352 585.902 146.863 C 585.879 146.898 585.863 146.941 585.84 146.977 C 585.547 147.512 585.309 148.07 585.148 148.664 C 585.145 148.688 585.145 148.711 585.137 148.738 C 584.977 149.348 584.887 149.98 584.887 150.633 L 584.887 296.496 L 599.984 287.828 L 599.984 163.363"/>
  <path class="logo-fill" d="M 749.926 583.031 L 891.684 660.582 L 749.926 738.129 L 608.168 660.582 Z M 914.703 658.617 C 914.543 658.023 914.301 657.457 914.012 656.934 C 913.988 656.895 913.973 656.848 913.949 656.813 C 913.652 656.297 913.293 655.828 912.883 655.395 C 912.836 655.348 912.801 655.305 912.762 655.262 C 912.352 654.848 911.879 654.48 911.371 654.168 C 911.332 654.145 911.305 654.109 911.262 654.09 C 911.242 654.07 911.211 654.07 911.188 654.055 C 911.137 654.027 911.094 653.984 911.039 653.957 L 753.547 567.805 C 751.293 566.57 748.559 566.57 746.305 567.805 L 588.816 653.957 C 588.758 653.984 588.715 654.027 588.66 654.055 C 588.641 654.07 588.609 654.07 588.586 654.09 C 588.547 654.109 588.52 654.145 588.48 654.168 C 587.973 654.48 587.5 654.848 587.09 655.262 C 587.047 655.305 587.016 655.348 586.973 655.395 C 586.559 655.828 586.199 656.301 585.902 656.813 C 585.879 656.848 585.863 656.887 585.84 656.93 C 585.547 657.457 585.309 658.023 585.148 658.617 C 585.145 658.637 585.145 658.66 585.137 658.691 C 584.977 659.301 584.887 659.934 584.887 660.582 L 584.887 832.887 C 584.887 835.645 586.391 838.188 588.816 839.512 L 746.305 925.66 C 746.375 925.703 746.453 925.715 746.531 925.75 C 746.816 925.883 747.109 925.988 747.406 926.094 C 747.609 926.168 747.797 926.273 748.008 926.332 C 748.637 926.496 749.281 926.59 749.926 926.59 C 750.57 926.59 751.215 926.496 751.84 926.332 C 752.047 926.273 752.242 926.168 752.445 926.094 C 752.742 925.988 753.031 925.883 753.316 925.75 C 753.391 925.715 753.477 925.703 753.547 925.66 L 911.039 839.512 C 913.457 838.188 914.965 835.645 914.965 832.887 L 914.965 660.582 C 914.965 659.934 914.871 659.301 914.711 658.691 C 914.711 658.66 914.707 658.637 914.703 658.617 M 899.867 828.41 L 757.473 906.301 L 757.473 751.207 L 850.188 700.488 L 899.867 673.316 Z M 599.984 673.316 L 644.797 697.832 L 742.375 751.207 L 742.375 906.301 L 599.984 828.41 Z"/>
</svg>