<svg xmlns="http://www.w3.org/2000/svg" xmlns:xlink="http://www.w3.org/1999/xlink" width="2000" zoomAndPan="magnify" viewBox="0 0 1500 1499.999933" height="2000" preserveAspectRatio="xMidYMid meet" version="1.0"><defs><clipPath id="c6ff6bdf06"><path d="M 600 120.085938 L 900 120.085938 L 900 448 L 600 448 Z M 600 120.085938 " clip-rule="nonzero"/></clipPath><clipPath id="992c0768b2"><path d="M 170.476562 352 L 471 352 L 471 679 L 170.476562 679 Z M 170.476562 352 " clip-rule="nonzero"/></clipPath><clipPath id="d209311ce8"><path d="M 170.476562 833 L 471 833 L 471 1149 L 170.476562 1149 Z M 170.476562 833 " clip-rule="nonzero"/></clipPath><clipPath id="6ebb04554c"><path d="M 1029 352 L 1329.226562 352 L 1329.226562 679 L 1029 679 Z M 1029 352 " clip-rule="nonzero"/></clipPath><clipPath id="7a99248ed4"><path d="M 1029 833 L 1329.226562 833 L 1329.226562 1149 L 1029 1149 Z M 1029 833 " clip-rule="nonzero"/></clipPath><clipPath id="6dbdd1e65d"><path d="M 439.707031 563.824219 L 1059.957031 563.824219 L 1059.957031 935.824219 L 439.707031 935.824219 Z M 439.707031 563.824219 " clip-rule="nonzero"/></clipPath></defs><rect x="-150" width="1800" fill="#ffffff" y="-149.999993" height="1799.99992" fill-opacity="1"/><rect x="-150" width="1800" fill="#082660" y="-149.999993" height="1799.99992" fill-opacity="1"/><g clip-path="url(#c6ff6bdf06)"><path fill="#f0f0f0" d="M 749.933594 135.070312 L 878.710938 205.519531 L 749.933594 275.960938 L 621.15625 205.519531 Z M 613.722656 217.085938 L 655.472656 239.921875 L 743.074219 287.84375 L 743.074219 428.738281 L 636.167969 370.257812 L 622.222656 378.261719 L 746.644531 446.328125 C 746.707031 446.363281 746.777344 446.375 746.851562 446.402344 C 747.109375 446.523438 747.375 446.621094 747.644531 446.71875 C 747.832031 446.78125 748 446.886719 748.191406 446.933594 C 748.761719 447.082031 749.347656 447.164062 749.933594 447.164062 C 750.519531 447.164062 751.105469 447.082031 751.675781 446.933594 C 751.859375 446.886719 752.035156 446.78125 752.222656 446.71875 C 752.492188 446.621094 752.757812 446.523438 753.015625 446.402344 C 753.082031 446.375 753.160156 446.363281 753.222656 446.328125 L 877.644531 378.261719 L 863.699219 370.257812 L 756.792969 428.738281 L 756.792969 287.84375 L 836.785156 244.085938 L 886.144531 217.085938 L 886.144531 330.152344 L 899.859375 338.023438 L 899.859375 205.519531 C 899.859375 204.929688 899.777344 204.355469 899.628906 203.800781 C 899.628906 203.773438 899.625 203.753906 899.621094 203.730469 C 899.476562 203.195312 899.257812 202.6875 898.992188 202.203125 C 898.972656 202.167969 898.957031 202.125 898.9375 202.09375 C 898.667969 201.628906 898.339844 201.199219 897.96875 200.804688 C 897.925781 200.765625 897.894531 200.726562 897.859375 200.6875 C 897.484375 200.3125 897.054688 199.980469 896.59375 199.691406 C 896.558594 199.671875 896.535156 199.640625 896.496094 199.621094 C 896.476562 199.609375 896.449219 199.605469 896.429688 199.59375 C 896.382812 199.5625 896.339844 199.527344 896.296875 199.5 L 753.222656 121.242188 C 751.175781 120.117188 748.691406 120.117188 746.644531 121.242188 L 603.578125 199.5 C 603.527344 199.527344 603.484375 199.5625 603.4375 199.59375 C 603.410156 199.605469 603.390625 199.609375 603.371094 199.621094 C 603.332031 199.640625 603.308594 199.671875 603.273438 199.691406 C 602.8125 199.980469 602.378906 200.3125 602.007812 200.6875 C 601.972656 200.726562 601.941406 200.765625 601.902344 200.804688 C 601.53125 201.199219 601.199219 201.628906 600.929688 202.09375 C 600.910156 202.125 600.894531 202.167969 600.875 202.199219 C 600.609375 202.6875 600.390625 203.195312 600.246094 203.730469 C 600.242188 203.753906 600.242188 203.773438 600.238281 203.800781 C 600.089844 204.355469 600.007812 204.929688 600.007812 205.519531 L 600.007812 338.023438 L 613.722656 330.152344 L 613.722656 217.085938 " fill-opacity="1" fill-rule="nonzero"/></g><g clip-path="url(#992c0768b2)"><path fill="#f0f0f0" d="M 320.730469 366.699219 L 449.507812 437.144531 L 332.71875 501.035156 L 320.730469 507.589844 L 309.304688 501.339844 L 191.957031 437.144531 Z M 184.523438 448.714844 L 313.875 519.472656 L 313.875 660.367188 L 184.523438 589.605469 Z M 174.375 599.6875 L 317.441406 677.949219 C 317.503906 677.988281 317.578125 678.003906 317.644531 678.03125 C 317.910156 678.148438 318.179688 678.25 318.449219 678.34375 C 318.628906 678.410156 318.800781 678.507812 318.992188 678.5625 C 319.5625 678.710938 320.148438 678.789062 320.730469 678.789062 C 321.316406 678.789062 321.902344 678.710938 322.472656 678.5625 C 322.660156 678.507812 322.835938 678.410156 323.015625 678.34375 C 323.285156 678.25 323.550781 678.148438 323.8125 678.03125 C 323.882812 678.003906 323.953125 677.988281 324.019531 677.949219 L 449.667969 609.214844 L 435.726562 601.214844 L 327.589844 660.367188 L 327.589844 519.472656 L 432.992188 461.8125 L 456.941406 448.714844 L 456.941406 560.402344 L 470.65625 568.277344 L 470.65625 437.144531 C 470.65625 436.558594 470.574219 435.976562 470.433594 435.421875 C 470.425781 435.402344 470.425781 435.375 470.417969 435.355469 C 470.273438 434.824219 470.054688 434.308594 469.792969 433.828125 C 469.769531 433.792969 469.753906 433.753906 469.734375 433.71875 C 469.464844 433.253906 469.132812 432.824219 468.761719 432.429688 C 468.726562 432.394531 468.695312 432.351562 468.65625 432.316406 C 468.285156 431.9375 467.855469 431.605469 467.386719 431.320312 C 467.359375 431.300781 467.332031 431.265625 467.296875 431.25 C 467.273438 431.234375 467.253906 431.226562 467.234375 431.21875 C 467.179688 431.191406 467.140625 431.15625 467.089844 431.128906 L 324.019531 352.863281 C 321.976562 351.742188 319.488281 351.742188 317.441406 352.863281 L 174.375 431.128906 C 174.324219 431.15625 174.28125 431.191406 174.230469 431.21875 C 174.210938 431.226562 174.1875 431.234375 174.167969 431.25 C 174.132812 431.265625 174.105469 431.300781 174.074219 431.320312 C 173.609375 431.605469 173.179688 431.9375 172.804688 432.316406 C 172.769531 432.351562 172.738281 432.394531 172.703125 432.429688 C 172.328125 432.824219 172 433.253906 171.730469 433.71875 C 171.707031 433.753906 171.691406 433.792969 171.671875 433.828125 C 171.40625 434.308594 171.191406 434.824219 171.046875 435.355469 C 171.039062 435.375 171.039062 435.402344 171.03125 435.421875 C 170.890625 435.976562 170.808594 436.558594 170.808594 437.144531 L 170.808594 593.671875 C 170.808594 596.179688 172.175781 598.484375 174.375 599.6875 " fill-opacity="1" fill-rule="nonzero"/></g><g clip-path="url(#d209311ce8)"><path fill="#f0f0f0" d="M 184.523438 918.292969 L 230.859375 943.640625 L 313.875 989.050781 L 313.875 1129.941406 L 184.523438 1059.183594 Z M 327.589844 1129.941406 L 327.589844 989.050781 L 408.003906 945.066406 L 456.941406 918.292969 L 456.941406 1025.488281 L 470.65625 1033.363281 L 470.65625 906.726562 C 470.65625 906.132812 470.574219 905.558594 470.433594 905.003906 C 470.429688 904.980469 470.425781 904.957031 470.417969 904.933594 C 470.273438 904.398438 470.054688 903.886719 469.792969 903.40625 C 469.769531 903.375 469.753906 903.332031 469.734375 903.300781 C 469.464844 902.832031 469.132812 902.398438 468.761719 902.007812 C 468.726562 901.96875 468.695312 901.929688 468.65625 901.894531 C 468.285156 901.515625 467.855469 901.183594 467.394531 900.898438 C 467.359375 900.878906 467.332031 900.847656 467.296875 900.824219 C 467.273438 900.808594 467.253906 900.808594 467.234375 900.792969 C 467.179688 900.769531 467.140625 900.730469 467.089844 900.707031 L 343.585938 833.144531 L 343.5 848.734375 L 449.507812 906.726562 L 320.730469 977.167969 L 191.957031 906.726562 L 297.546875 848.957031 L 297.628906 833.277344 L 174.375 900.707031 C 174.324219 900.730469 174.28125 900.769531 174.234375 900.792969 C 174.210938 900.808594 174.1875 900.808594 174.167969 900.824219 C 174.132812 900.847656 174.105469 900.878906 174.074219 900.898438 C 173.609375 901.183594 173.179688 901.515625 172.804688 901.894531 C 172.769531 901.929688 172.738281 901.96875 172.703125 902.007812 C 172.328125 902.398438 172 902.832031 171.730469 903.300781 C 171.707031 903.332031 171.691406 903.375 171.671875 903.40625 C 171.40625 903.886719 171.191406 904.398438 171.046875 904.933594 C 171.039062 904.957031 171.039062 904.980469 171.03125 905.003906 C 170.890625 905.558594 170.808594 906.132812 170.808594 906.726562 L 170.808594 1063.25 C 170.808594 1065.757812 172.175781 1068.066406 174.375 1069.269531 L 317.441406 1147.527344 C 317.503906 1147.5625 317.578125 1147.578125 317.644531 1147.609375 C 317.910156 1147.722656 318.171875 1147.828125 318.441406 1147.921875 C 318.625 1147.988281 318.800781 1148.085938 318.992188 1148.136719 C 319.5625 1148.289062 320.148438 1148.371094 320.730469 1148.371094 C 321.316406 1148.371094 321.902344 1148.289062 322.472656 1148.136719 C 322.660156 1148.085938 322.835938 1147.988281 323.019531 1147.921875 C 323.289062 1147.828125 323.554688 1147.722656 323.8125 1147.609375 C 323.882812 1147.578125 323.953125 1147.5625 324.019531 1147.527344 L 453.679688 1076.601562 L 439.734375 1068.601562 L 327.589844 1129.941406 " fill-opacity="1" fill-rule="nonzero"/></g><path fill="#f0f0f0" d="M 886.144531 821.230469 L 756.792969 891.988281 L 756.792969 751.097656 L 841.011719 705.023438 L 886.144531 680.339844 Z M 613.722656 680.339844 L 654.429688 702.609375 L 743.074219 751.097656 L 743.074219 891.988281 L 613.722656 821.230469 Z M 749.933594 598.324219 L 878.710938 668.773438 L 749.933594 739.214844 L 621.15625 668.773438 Z M 899.621094 666.984375 C 899.476562 666.445312 899.257812 665.933594 898.992188 665.457031 C 898.972656 665.421875 898.957031 665.378906 898.9375 665.347656 C 898.667969 664.875 898.339844 664.453125 897.96875 664.058594 C 897.925781 664.015625 897.894531 663.976562 897.859375 663.9375 C 897.484375 663.5625 897.054688 663.230469 896.59375 662.945312 C 896.558594 662.925781 896.535156 662.894531 896.496094 662.871094 C 896.476562 662.855469 896.449219 662.855469 896.429688 662.839844 C 896.382812 662.816406 896.339844 662.777344 896.296875 662.753906 L 753.222656 584.488281 C 751.175781 583.371094 748.691406 583.371094 746.644531 584.488281 L 603.578125 662.753906 C 603.527344 662.777344 603.484375 662.816406 603.4375 662.839844 C 603.417969 662.855469 603.390625 662.855469 603.371094 662.871094 C 603.332031 662.894531 603.308594 662.925781 603.273438 662.945312 C 602.8125 663.230469 602.378906 663.5625 602.007812 663.9375 C 601.972656 663.976562 601.941406 664.015625 601.902344 664.058594 C 601.527344 664.453125 601.199219 664.882812 600.929688 665.347656 C 600.910156 665.378906 600.894531 665.414062 600.875 665.453125 C 600.609375 665.933594 600.390625 666.445312 600.246094 666.984375 C 600.242188 667.003906 600.242188 667.027344 600.238281 667.050781 C 600.089844 667.605469 600.007812 668.179688 600.007812 668.773438 L 600.007812 825.296875 C 600.007812 827.804688 601.375 830.113281 603.578125 831.316406 L 746.644531 909.574219 C 746.707031 909.617188 746.777344 909.625 746.851562 909.65625 C 747.109375 909.777344 747.375 909.875 747.644531 909.96875 C 747.832031 910.035156 748 910.132812 748.191406 910.183594 C 748.761719 910.335938 749.347656 910.417969 749.933594 910.417969 C 750.519531 910.417969 751.105469 910.335938 751.675781 910.183594 C 751.859375 910.132812 752.035156 910.035156 752.222656 909.96875 C 752.492188 909.875 752.757812 909.777344 753.015625 909.65625 C 753.082031 909.625 753.160156 909.617188 753.222656 909.574219 L 896.296875 831.316406 C 898.492188 830.113281 899.859375 827.804688 899.859375 825.296875 L 899.859375 668.773438 C 899.859375 668.179688 899.777344 667.605469 899.628906 667.050781 C 899.628906 667.027344 899.625 667.003906 899.621094 666.984375 " fill-opacity="1" fill-rule="nonzero"/><path fill="#f0f0f0" d="M 886.144531 1290.8125 L 756.792969 1361.566406 L 756.792969 1220.675781 L 838.011719 1176.25 L 886.144531 1149.921875 Z M 613.722656 1149.921875 L 653.800781 1171.839844 L 743.074219 1220.675781 L 743.074219 1361.566406 L 613.722656 1290.8125 Z M 749.933594 1067.90625 L 878.710938 1138.347656 L 749.933594 1208.792969 L 733.613281 1199.867188 L 621.15625 1138.347656 Z M 899.621094 1136.5625 C 899.476562 1136.027344 899.257812 1135.515625 898.992188 1135.035156 C 898.972656 1134.996094 898.957031 1134.960938 898.9375 1134.925781 C 898.667969 1134.460938 898.339844 1134.027344 897.96875 1133.636719 C 897.925781 1133.597656 897.894531 1133.558594 897.859375 1133.523438 C 897.480469 1133.144531 897.054688 1132.8125 896.589844 1132.523438 C 896.558594 1132.5 896.535156 1132.46875 896.496094 1132.449219 C 896.476562 1132.4375 896.457031 1132.433594 896.433594 1132.421875 C 896.382812 1132.390625 896.339844 1132.359375 896.296875 1132.332031 L 753.222656 1054.066406 C 751.175781 1052.945312 748.691406 1052.945312 746.644531 1054.066406 L 603.578125 1132.332031 C 603.527344 1132.359375 603.484375 1132.390625 603.433594 1132.421875 C 603.410156 1132.433594 603.390625 1132.4375 603.371094 1132.449219 C 603.332031 1132.46875 603.308594 1132.5 603.277344 1132.523438 C 602.8125 1132.8125 602.378906 1133.144531 602.007812 1133.523438 C 601.972656 1133.558594 601.941406 1133.597656 601.902344 1133.636719 C 601.53125 1134.027344 601.199219 1134.460938 600.929688 1134.925781 C 600.910156 1134.960938 600.894531 1134.996094 600.875 1135.035156 C 600.609375 1135.515625 600.390625 1136.023438 600.246094 1136.5625 C 600.242188 1136.582031 600.242188 1136.609375 600.238281 1136.628906 C 600.089844 1137.183594 600.007812 1137.757812 600.007812 1138.347656 L 600.007812 1294.871094 C 600.007812 1297.378906 601.375 1299.691406 603.578125 1300.890625 L 746.644531 1379.15625 C 746.707031 1379.191406 746.777344 1379.203125 746.851562 1379.238281 C 747.109375 1379.351562 747.375 1379.457031 747.644531 1379.550781 C 747.832031 1379.613281 748 1379.714844 748.191406 1379.761719 C 748.761719 1379.914062 749.347656 1379.996094 749.933594 1379.996094 C 750.519531 1379.996094 751.105469 1379.914062 751.675781 1379.761719 C 751.859375 1379.714844 752.035156 1379.613281 752.222656 1379.550781 C 752.488281 1379.457031 752.757812 1379.351562 753.015625 1379.238281 C 753.089844 1379.203125 753.160156 1379.191406 753.222656 1379.15625 L 896.296875 1300.890625 C 898.492188 1299.691406 899.859375 1297.378906 899.859375 1294.871094 L 899.859375 1138.347656 C 899.859375 1137.757812 899.777344 1137.183594 899.628906 1136.628906 C 899.628906 1136.609375 899.625 1136.582031 899.621094 1136.5625 " fill-opacity="1" fill-rule="nonzero"/><g clip-path="url(#6ebb04554c)"><path fill="#f0f0f0" d="M 1315.34375 589.605469 L 1185.992188 660.367188 L 1185.992188 519.472656 L 1267.214844 475.042969 L 1315.34375 448.714844 Z M 1179.136719 366.699219 L 1307.910156 437.144531 L 1220.011719 485.230469 L 1179.136719 507.589844 L 1166.082031 500.449219 L 1050.359375 437.144531 Z M 1328.832031 435.421875 C 1328.828125 435.402344 1328.828125 435.375 1328.820312 435.355469 C 1328.675781 434.824219 1328.460938 434.308594 1328.195312 433.828125 C 1328.175781 433.792969 1328.160156 433.753906 1328.136719 433.71875 C 1327.867188 433.253906 1327.542969 432.824219 1327.164062 432.429688 C 1327.132812 432.394531 1327.097656 432.351562 1327.0625 432.316406 C 1326.6875 431.9375 1326.257812 431.605469 1325.792969 431.320312 C 1325.761719 431.300781 1325.734375 431.265625 1325.699219 431.25 C 1325.679688 431.234375 1325.65625 431.226562 1325.636719 431.21875 C 1325.585938 431.191406 1325.542969 431.15625 1325.496094 431.128906 L 1182.425781 352.863281 C 1180.371094 351.742188 1177.890625 351.742188 1175.839844 352.863281 L 1032.777344 431.128906 C 1032.726562 431.15625 1032.6875 431.191406 1032.632812 431.21875 C 1032.613281 431.226562 1032.59375 431.234375 1032.570312 431.25 C 1032.535156 431.265625 1032.507812 431.300781 1032.476562 431.320312 C 1032.011719 431.605469 1031.582031 431.9375 1031.210938 432.316406 C 1031.171875 432.351562 1031.136719 432.394531 1031.105469 432.429688 C 1030.734375 432.824219 1030.402344 433.253906 1030.132812 433.71875 C 1030.109375 433.753906 1030.097656 433.792969 1030.074219 433.828125 C 1029.8125 434.308594 1029.59375 434.824219 1029.449219 435.355469 C 1029.441406 435.375 1029.4375 435.402344 1029.433594 435.421875 C 1029.292969 435.976562 1029.210938 436.558594 1029.210938 437.144531 L 1029.210938 576.324219 L 1042.925781 568.453125 L 1042.925781 448.714844 L 1083.007812 470.640625 L 1172.277344 519.472656 L 1172.277344 660.367188 L 1071.320312 605.140625 L 1057.371094 613.140625 L 1175.839844 677.949219 C 1175.90625 677.988281 1175.984375 678.003906 1176.046875 678.03125 C 1176.3125 678.148438 1176.582031 678.25 1176.84375 678.34375 C 1177.03125 678.410156 1177.207031 678.507812 1177.390625 678.5625 C 1177.964844 678.710938 1178.550781 678.789062 1179.136719 678.789062 C 1179.71875 678.789062 1180.304688 678.710938 1180.875 678.5625 C 1181.0625 678.507812 1181.238281 678.410156 1181.417969 678.34375 C 1181.6875 678.25 1181.957031 678.148438 1182.21875 678.03125 C 1182.289062 678.003906 1182.355469 677.988281 1182.425781 677.949219 L 1325.496094 599.6875 C 1327.691406 598.484375 1329.058594 596.179688 1329.058594 593.671875 L 1329.058594 437.144531 C 1329.058594 436.558594 1328.976562 435.976562 1328.832031 435.421875 " fill-opacity="1" fill-rule="nonzero"/></g><g clip-path="url(#7a99248ed4)"><path fill="#f0f0f0" d="M 1315.34375 1059.183594 L 1185.992188 1129.941406 L 1185.992188 989.050781 L 1250.863281 953.566406 L 1315.34375 918.292969 Z M 1328.820312 904.933594 C 1328.675781 904.398438 1328.460938 903.886719 1328.195312 903.40625 C 1328.175781 903.375 1328.160156 903.332031 1328.136719 903.300781 C 1327.867188 902.832031 1327.542969 902.398438 1327.164062 902.007812 C 1327.132812 901.96875 1327.097656 901.929688 1327.0625 901.894531 C 1326.6875 901.515625 1326.257812 901.183594 1325.792969 900.898438 C 1325.761719 900.878906 1325.734375 900.847656 1325.699219 900.824219 C 1325.679688 900.808594 1325.65625 900.808594 1325.632812 900.792969 C 1325.585938 900.769531 1325.542969 900.730469 1325.496094 900.707031 L 1201.988281 833.144531 L 1201.90625 848.734375 L 1307.910156 906.726562 L 1179.136719 977.167969 L 1050.359375 906.726562 L 1155.949219 848.960938 L 1156.035156 833.277344 L 1032.777344 900.707031 C 1032.726562 900.730469 1032.6875 900.769531 1032.632812 900.792969 C 1032.617188 900.808594 1032.59375 900.808594 1032.570312 900.824219 C 1032.535156 900.847656 1032.507812 900.878906 1032.472656 900.898438 C 1032.011719 901.183594 1031.582031 901.515625 1031.210938 901.894531 C 1031.171875 901.929688 1031.136719 901.96875 1031.105469 902.007812 C 1030.734375 902.398438 1030.402344 902.832031 1030.132812 903.296875 C 1030.109375 903.332031 1030.097656 903.375 1030.074219 903.410156 C 1029.8125 903.886719 1029.59375 904.398438 1029.449219 904.933594 C 1029.441406 904.957031 1029.4375 904.980469 1029.433594 905.003906 C 1029.292969 905.558594 1029.210938 906.132812 1029.210938 906.726562 L 1029.210938 1033.363281 L 1042.925781 1025.488281 L 1042.925781 918.292969 L 1104.636719 952.046875 L 1172.277344 989.050781 L 1172.277344 1129.941406 L 1060.132812 1068.59375 L 1046.1875 1076.601562 L 1175.839844 1147.527344 C 1175.90625 1147.5625 1175.984375 1147.578125 1176.046875 1147.609375 C 1176.3125 1147.722656 1176.578125 1147.828125 1176.839844 1147.921875 C 1177.027344 1147.988281 1177.203125 1148.085938 1177.394531 1148.136719 C 1177.964844 1148.289062 1178.550781 1148.371094 1179.136719 1148.371094 C 1179.71875 1148.371094 1180.304688 1148.289062 1180.875 1148.136719 C 1181.066406 1148.085938 1181.238281 1147.988281 1181.425781 1147.921875 C 1181.6875 1147.828125 1181.957031 1147.722656 1182.21875 1147.609375 C 1182.285156 1147.578125 1182.355469 1147.5625 1182.425781 1147.527344 L 1325.496094 1069.269531 C 1327.691406 1068.066406 1329.058594 1065.757812 1329.058594 1063.25 L 1329.058594 906.726562 C 1329.058594 906.132812 1328.976562 905.558594 1328.832031 905.003906 C 1328.828125 904.980469 1328.828125 904.957031 1328.820312 904.933594 " fill-opacity="1" fill-rule="nonzero"/></g><path fill="#f0f0f0" d="M 1178.316406 917.488281 C 1178.410156 917.488281 1178.496094 917.488281 1178.585938 917.484375 C 1182.953125 917.34375 1186.5 913.765625 1186.511719 909.496094 L 1186.875 840.507812 L 1186.957031 824.917969 L 1187.5625 708.941406 C 1187.574219 704.761719 1184.191406 701.460938 1179.949219 701.460938 C 1179.859375 701.460938 1179.773438 701.464844 1179.683594 701.464844 C 1175.316406 701.609375 1171.769531 705.183594 1171.757812 709.457031 L 1171.152344 825.011719 L 1171.070312 840.691406 L 1170.703125 910.015625 C 1170.703125 911.355469 1171.050781 912.605469 1171.660156 913.6875 C 1172.957031 915.972656 1175.441406 917.488281 1178.316406 917.488281 " fill-opacity="1" fill-rule="nonzero"/><path fill="#f0f0f0" d="M 321.28125 701.464844 C 316.914062 701.609375 313.367188 705.183594 313.355469 709.457031 L 312.75 825.011719 L 312.667969 840.691406 L 312.304688 910.015625 C 312.300781 911.355469 312.648438 912.605469 313.257812 913.6875 C 314.550781 915.972656 317.039062 917.488281 319.917969 917.488281 C 320.007812 917.488281 320.09375 917.488281 320.1875 917.484375 C 324.550781 917.34375 328.097656 913.765625 328.109375 909.496094 L 328.46875 840.507812 L 328.554688 824.917969 L 329.164062 708.941406 C 329.175781 704.761719 325.789062 701.460938 321.546875 701.460938 C 321.457031 701.460938 321.367188 701.464844 321.28125 701.464844 " fill-opacity="1" fill-rule="nonzero"/><path fill="#f0f0f0" d="M 492.339844 434.308594 C 493.582031 434.308594 494.839844 433.992188 496 433.332031 L 606.714844 369.78125 L 620.664062 361.773438 L 669.945312 333.488281 C 673.652344 331.371094 675.015625 326.519531 672.984375 322.652344 C 671.597656 320 668.96875 318.503906 666.265625 318.503906 C 665.023438 318.503906 663.765625 318.820312 662.597656 319.480469 L 613.722656 347.535156 L 600.007812 355.40625 L 488.65625 419.324219 C 484.949219 421.445312 483.585938 426.292969 485.617188 430.160156 C 487.007812 432.808594 489.628906 434.308594 492.339844 434.308594 " fill-opacity="1" fill-rule="nonzero"/><path fill="#f0f0f0" d="M 886.144531 347.535156 L 837.269531 319.480469 C 836.101562 318.820312 834.84375 318.503906 833.601562 318.503906 C 830.898438 318.503906 828.269531 320 826.878906 322.652344 C 824.847656 326.519531 826.214844 331.371094 829.921875 333.488281 L 879.203125 361.773438 L 893.152344 369.78125 L 1003.859375 433.332031 C 1005.027344 433.992188 1006.285156 434.308594 1007.527344 434.308594 C 1010.238281 434.308594 1012.859375 432.808594 1014.25 430.160156 C 1016.277344 426.292969 1014.917969 421.445312 1011.207031 419.324219 L 899.859375 355.40625 L 886.144531 347.535156 " fill-opacity="1" fill-rule="nonzero"/><path fill="#f0f0f0" d="M 1055.8125 596.65625 L 1119.855469 559.894531 C 1123.5625 557.78125 1124.925781 552.933594 1122.894531 549.066406 C 1121.507812 546.414062 1118.878906 544.917969 1116.171875 544.917969 C 1114.933594 544.917969 1113.667969 545.230469 1112.507812 545.894531 L 1042.925781 585.835938 L 1029.210938 593.703125 L 938.566406 645.738281 C 934.859375 647.851562 933.496094 652.703125 935.527344 656.570312 C 936.914062 659.21875 939.539062 660.722656 942.242188 660.722656 C 943.488281 660.722656 944.746094 660.40625 945.910156 659.742188 L 1041.867188 604.664062 L 1055.8125 596.65625 " fill-opacity="1" fill-rule="nonzero"/><path fill="#f0f0f0" d="M 575.316406 1110.824219 L 470.65625 1050.746094 L 456.941406 1042.871094 L 401.378906 1010.980469 C 400.214844 1010.3125 398.953125 1009.996094 397.710938 1009.996094 C 395.003906 1009.996094 392.382812 1011.5 390.988281 1014.152344 C 388.957031 1018.015625 390.320312 1022.867188 394.027344 1024.980469 L 455.238281 1060.117188 L 468.8125 1067.90625 L 567.972656 1124.824219 C 569.136719 1125.492188 570.394531 1125.808594 571.640625 1125.808594 C 574.34375 1125.808594 576.96875 1124.308594 578.363281 1121.65625 C 580.386719 1117.789062 579.027344 1112.9375 575.316406 1110.824219 " fill-opacity="1" fill-rule="nonzero"/><path fill="#f0f0f0" d="M 1108.878906 1014.152344 C 1107.484375 1011.5 1104.863281 1009.996094 1102.15625 1009.996094 C 1100.910156 1009.996094 1099.652344 1010.3125 1098.488281 1010.980469 L 1042.925781 1042.871094 L 1029.210938 1050.746094 L 924.550781 1110.824219 C 920.839844 1112.9375 919.472656 1117.789062 921.503906 1121.65625 C 922.898438 1124.308594 925.519531 1125.808594 928.226562 1125.808594 C 929.46875 1125.808594 930.730469 1125.492188 931.894531 1124.824219 L 1031.054688 1067.90625 L 1044.628906 1060.117188 L 1105.832031 1024.980469 C 1109.542969 1022.867188 1110.910156 1018.015625 1108.878906 1014.152344 " fill-opacity="1" fill-rule="nonzero"/><path fill="#f0f0f0" d="M 575.316406 645.738281 L 470.65625 585.660156 L 456.941406 577.785156 L 401.378906 545.894531 C 400.214844 545.230469 398.953125 544.917969 397.710938 544.917969 C 395.003906 544.917969 392.382812 546.414062 390.988281 549.066406 C 388.957031 552.933594 390.320312 557.78125 394.027344 559.894531 L 451.226562 592.730469 L 465.175781 600.738281 L 567.972656 659.742188 C 569.136719 660.40625 570.394531 660.722656 571.640625 660.722656 C 574.34375 660.722656 576.96875 659.21875 578.363281 656.570312 C 580.386719 652.703125 579.027344 647.851562 575.316406 645.738281 " fill-opacity="1" fill-rule="nonzero"/><path fill="#f0f0f0" d="M 930.960938 834.261719 C 929.941406 833.683594 928.828125 833.402344 927.742188 833.402344 C 925.359375 833.402344 923.046875 834.722656 921.820312 837.058594 C 920.035156 840.457031 921.234375 844.726562 924.5 846.589844 L 1004.269531 893.476562 C 1005.296875 894.054688 1006.402344 894.335938 1007.496094 894.335938 C 1009.878906 894.335938 1012.191406 893.015625 1013.410156 890.679688 C 1015.199219 887.28125 1013.996094 883.011719 1010.734375 881.148438 L 930.960938 834.261719 " fill-opacity="1" fill-rule="nonzero"/><path fill="#f0f0f0" d="M 748.898438 463.132812 C 745.058594 463.320312 741.988281 466.511719 742.035156 470.273438 L 741.898438 558.492188 C 741.914062 559.671875 742.238281 560.769531 742.789062 561.714844 C 743.945312 563.675781 746.101562 564.972656 748.59375 564.972656 C 748.707031 564.972656 748.820312 564.972656 748.933594 564.964844 C 752.773438 564.78125 755.847656 561.589844 755.800781 557.828125 L 755.929688 469.609375 C 755.890625 465.96875 752.921875 463.128906 749.238281 463.128906 C 749.125 463.128906 749.011719 463.128906 748.898438 463.132812 " fill-opacity="1" fill-rule="nonzero"/><path fill="#f0f0f0" d="M 748.898438 1033.972656 C 749.011719 1033.980469 749.125 1033.980469 749.238281 1033.980469 C 752.921875 1033.980469 755.890625 1031.140625 755.929688 1027.5 L 755.800781 939.28125 C 755.847656 935.519531 752.773438 932.324219 748.933594 932.140625 C 748.820312 932.136719 748.707031 932.136719 748.59375 932.136719 C 746.105469 932.136719 743.945312 933.429688 742.789062 935.394531 C 742.238281 936.335938 741.914062 937.433594 741.898438 938.617188 L 742.035156 1026.835938 C 741.988281 1030.597656 745.058594 1033.789062 748.898438 1033.972656 " fill-opacity="1" fill-rule="nonzero"/><path fill="#f0f0f0" d="M 492.371094 894.335938 C 493.464844 894.335938 494.570312 894.054688 495.597656 893.476562 L 575.367188 846.589844 C 578.632812 844.726562 579.828125 840.457031 578.046875 837.058594 C 576.820312 834.722656 574.507812 833.402344 572.125 833.402344 C 571.035156 833.402344 569.925781 833.683594 568.898438 834.261719 L 489.132812 881.148438 C 485.871094 883.011719 484.667969 887.28125 486.453125 890.679688 C 487.675781 893.015625 489.988281 894.335938 492.371094 894.335938 " fill-opacity="1" fill-rule="nonzero"/><g clip-path="url(#6dbdd1e65d)"><path fill="#f0f0f0" d="M 981.414062 716.847656 L 751.09375 805.457031 C 652.117188 766.964844 551.722656 730.988281 453.375 691.082031 C 446.933594 688.414062 436.09375 687 440.960938 677.886719 L 747.796875 563.824219 L 752.507812 563.824219 C 752.507812 563.824219 1059.65625 678.042969 1059.65625 678.042969 C 1061.226562 680.085938 1061.070312 685.898438 1058.242188 687 L 998.539062 709.9375 L 996.65625 712.292969 L 996.65625 804.042969 C 1013.152344 810.800781 1013.308594 831.695312 998.539062 840.808594 C 1003.722656 852.589844 1007.652344 865.003906 1010.007812 877.726562 C 1012.207031 889.511719 1014.878906 906.480469 1015.351562 918.417969 C 1015.664062 923.917969 1012.992188 926.589844 1008.910156 929.886719 C 997.910156 938.6875 982.199219 938.84375 970.730469 930.671875 C 961.460938 923.917969 963.347656 918.578125 964.289062 908.363281 C 966.488281 886.054688 970.417969 862.332031 979.53125 841.90625 C 977.171875 838.136719 973.089844 835.9375 971.203125 831.695312 C 966.332031 821.324219 970.574219 809.070312 981.257812 804.988281 L 981.257812 717.320312 Z M 981.414062 716.847656 " fill-opacity="1" fill-rule="nonzero"/></g><path fill="#f0f0f0" d="M 585.1875 758.640625 C 587.703125 757.855469 594.613281 761.152344 597.597656 762.097656 C 645.046875 778.90625 692.492188 801.53125 739.941406 817.242188 C 750.308594 820.699219 751.566406 820.382812 761.933594 817.085938 C 810.480469 800.902344 858.554688 776.707031 907.101562 760.523438 C 909.773438 759.582031 912.445312 758.167969 915.273438 758.640625 C 918.101562 759.582031 922.34375 780.792969 923.285156 784.71875 C 926.585938 799.960938 929.882812 817.871094 931.769531 833.265625 C 932.238281 837.351562 933.183594 840.964844 930.984375 844.890625 C 928.46875 849.292969 910.714844 858.71875 905.21875 861.703125 C 872.382812 879.769531 833.890625 896.425781 798.070312 907.734375 C 778.273438 914.019531 758.636719 921.402344 737.738281 917.320312 C 690.765625 908.207031 622.894531 879.300781 581.730469 854.632812 C 572.933594 849.292969 568.691406 849.605469 569.164062 838.136719 C 569.949219 820.382812 575.761719 793.359375 579.847656 775.609375 C 580.472656 772.621094 582.832031 759.425781 585.1875 758.640625 Z M 585.1875 758.640625 " fill-opacity="1" fill-rule="nonzero"/></svg>
