<svg xmlns="http://www.w3.org/2000/svg" xmlns:xlink="http://www.w3.org/1999/xlink" width="2000" zoomAndPan="magnify" viewBox="0 0 1500 1499.999933" height="2000" preserveAspectRatio="xMidYMid meet" version="1.0"><defs><clipPath id="46a9830b0b"><path d="M 584 56.585938 L 915 56.585938 L 915 417 L 584 417 Z M 584 56.585938 " clip-rule="nonzero"/></clipPath><clipPath id="5adfd8db28"><path d="M 112.058594 311 L 443 311 L 443 672 L 112.058594 672 Z M 112.058594 311 " clip-rule="nonzero"/></clipPath><clipPath id="25d0f27b5e"><path d="M 112.058594 841 L 443 841 L 443 1189 L 112.058594 1189 Z M 112.058594 841 " clip-rule="nonzero"/></clipPath><clipPath id="6aa53026d9"><path d="M 584 1083 L 915 1083 L 915 1443.335938 L 584 1443.335938 Z M 584 1083 " clip-rule="nonzero"/></clipPath><clipPath id="141b9deff7"><path d="M 1057 311 L 1387.808594 311 L 1387.808594 672 L 1057 672 Z M 1057 311 " clip-rule="nonzero"/></clipPath><clipPath id="c3c1a64961"><path d="M 1057 841 L 1387.808594 841 L 1387.808594 1189 L 1057 1189 Z M 1057 841 " clip-rule="nonzero"/></clipPath><clipPath id="29770131bf"><path d="M 439.707031 563.824219 L 1059.957031 563.824219 L 1059.957031 935.824219 L 439.707031 935.824219 Z M 439.707031 563.824219 " clip-rule="nonzero"/></clipPath></defs><g clip-path="url(#46a9830b0b)"><path fill="#082660" d="M 749.925781 73.082031 L 891.683594 150.632812 L 749.925781 228.175781 L 608.167969 150.632812 Z M 599.984375 163.363281 L 645.941406 188.503906 L 742.375 241.257812 L 742.375 396.351562 L 624.691406 331.976562 L 609.34375 340.785156 L 746.304688 415.714844 C 746.375 415.753906 746.453125 415.765625 746.53125 415.800781 C 746.816406 415.929688 747.109375 416.039062 747.40625 416.148438 C 747.609375 416.214844 747.796875 416.328125 748.007812 416.382812 C 748.636719 416.546875 749.28125 416.636719 749.925781 416.636719 C 750.570312 416.636719 751.214844 416.546875 751.839844 416.382812 C 752.046875 416.328125 752.242188 416.214844 752.445312 416.148438 C 752.742188 416.039062 753.03125 415.929688 753.316406 415.800781 C 753.390625 415.765625 753.476562 415.753906 753.546875 415.714844 L 890.507812 340.785156 L 875.160156 331.976562 L 757.472656 396.351562 L 757.472656 241.257812 L 845.53125 193.085938 L 899.867188 163.363281 L 899.867188 287.828125 L 914.964844 296.496094 L 914.964844 150.632812 C 914.964844 149.980469 914.871094 149.347656 914.710938 148.738281 C 914.710938 148.710938 914.707031 148.6875 914.703125 148.664062 C 914.542969 148.070312 914.300781 147.511719 914.011719 146.984375 C 913.988281 146.941406 913.972656 146.898438 913.949219 146.863281 C 913.652344 146.351562 913.292969 145.875 912.882812 145.445312 C 912.835938 145.398438 912.800781 145.359375 912.761719 145.3125 C 912.351562 144.902344 911.878906 144.535156 911.371094 144.21875 C 911.332031 144.195312 911.304688 144.160156 911.261719 144.136719 C 911.242188 144.125 911.210938 144.121094 911.1875 144.109375 C 911.136719 144.074219 911.09375 144.035156 911.039062 144.007812 L 753.546875 57.859375 C 751.292969 56.621094 748.558594 56.621094 746.304688 57.859375 L 588.816406 144.007812 C 588.757812 144.035156 588.714844 144.074219 588.660156 144.109375 C 588.632812 144.121094 588.609375 144.125 588.585938 144.136719 C 588.546875 144.160156 588.519531 144.195312 588.480469 144.21875 C 587.972656 144.535156 587.5 144.902344 587.089844 145.3125 C 587.046875 145.359375 587.015625 145.398438 586.972656 145.445312 C 586.5625 145.875 586.199219 146.351562 585.902344 146.863281 C 585.878906 146.898438 585.863281 146.941406 585.839844 146.976562 C 585.546875 147.511719 585.308594 148.070312 585.148438 148.664062 C 585.144531 148.6875 585.144531 148.710938 585.136719 148.738281 C 584.976562 149.347656 584.886719 149.980469 584.886719 150.632812 L 584.886719 296.496094 L 599.984375 287.828125 L 599.984375 163.363281 " fill-opacity="1" fill-rule="nonzero"/></g><g clip-path="url(#5adfd8db28)"><path fill="#082660" d="M 277.457031 328.058594 L 419.214844 405.605469 L 290.652344 475.9375 L 277.457031 483.15625 L 264.878906 476.273438 L 135.699219 405.605469 Z M 127.519531 418.34375 L 269.910156 496.234375 L 269.910156 651.328125 L 127.519531 573.4375 Z M 116.347656 584.53125 L 273.835938 670.6875 C 273.90625 670.726562 273.984375 670.742188 274.058594 670.777344 C 274.351562 670.902344 274.648438 671.015625 274.945312 671.121094 C 275.144531 671.195312 275.332031 671.300781 275.542969 671.359375 C 276.167969 671.523438 276.8125 671.609375 277.457031 671.609375 C 278.101562 671.609375 278.746094 671.523438 279.375 671.359375 C 279.578125 671.300781 279.773438 671.195312 279.972656 671.121094 C 280.269531 671.015625 280.558594 670.902344 280.851562 670.777344 C 280.925781 670.742188 281.003906 670.726562 281.078125 670.6875 L 419.394531 595.023438 L 404.042969 586.214844 L 285.007812 651.328125 L 285.007812 496.234375 L 401.03125 432.761719 L 427.398438 418.34375 L 427.398438 541.289062 L 442.496094 549.957031 L 442.496094 405.605469 C 442.496094 404.960938 442.40625 404.320312 442.25 403.710938 C 442.238281 403.6875 442.238281 403.660156 442.234375 403.636719 C 442.074219 403.050781 441.835938 402.484375 441.542969 401.957031 C 441.523438 401.914062 441.503906 401.875 441.480469 401.835938 C 441.183594 401.324219 440.820312 400.847656 440.410156 400.414062 C 440.371094 400.375 440.335938 400.332031 440.296875 400.289062 C 439.886719 399.875 439.410156 399.507812 438.898438 399.195312 C 438.863281 399.171875 438.835938 399.132812 438.796875 399.117188 C 438.773438 399.097656 438.75 399.09375 438.726562 399.082031 C 438.671875 399.054688 438.625 399.011719 438.566406 398.984375 L 281.078125 312.832031 C 278.828125 311.59375 276.089844 311.59375 273.835938 312.832031 L 116.347656 398.984375 C 116.292969 399.011719 116.246094 399.054688 116.1875 399.082031 C 116.167969 399.09375 116.144531 399.097656 116.121094 399.117188 C 116.082031 399.132812 116.050781 399.171875 116.019531 399.195312 C 115.503906 399.507812 115.03125 399.875 114.621094 400.289062 C 114.582031 400.332031 114.546875 400.375 114.507812 400.414062 C 114.097656 400.847656 113.730469 401.324219 113.433594 401.835938 C 113.414062 401.875 113.394531 401.914062 113.371094 401.957031 C 113.082031 402.484375 112.84375 403.050781 112.683594 403.636719 C 112.675781 403.660156 112.675781 403.6875 112.664062 403.710938 C 112.511719 404.320312 112.421875 404.960938 112.421875 405.605469 L 112.421875 577.914062 C 112.421875 580.671875 113.925781 583.210938 116.347656 584.53125 " fill-opacity="1" fill-rule="nonzero"/></g><g clip-path="url(#25d0f27b5e)"><path fill="#082660" d="M 127.519531 935.253906 L 178.527344 963.160156 L 269.910156 1013.148438 L 269.910156 1168.242188 L 127.519531 1090.347656 Z M 285.007812 1168.242188 L 285.007812 1013.148438 L 373.527344 964.726562 L 427.398438 935.253906 L 427.398438 1053.257812 L 442.496094 1061.925781 L 442.496094 922.523438 C 442.496094 921.871094 442.40625 921.238281 442.25 920.628906 C 442.246094 920.601562 442.238281 920.578125 442.234375 920.550781 C 442.074219 919.960938 441.835938 919.398438 441.542969 918.867188 C 441.523438 918.832031 441.503906 918.789062 441.480469 918.753906 C 441.183594 918.234375 440.820312 917.761719 440.410156 917.328125 C 440.371094 917.289062 440.335938 917.242188 440.296875 917.203125 C 439.886719 916.785156 439.410156 916.421875 438.90625 916.109375 C 438.863281 916.085938 438.835938 916.050781 438.796875 916.027344 C 438.773438 916.011719 438.75 916.011719 438.726562 915.996094 C 438.671875 915.964844 438.625 915.925781 438.566406 915.898438 L 302.613281 841.523438 L 302.523438 858.6875 L 419.214844 922.523438 L 277.457031 1000.066406 L 135.699219 922.523438 L 251.9375 858.929688 L 252.027344 841.671875 L 116.347656 915.898438 C 116.292969 915.925781 116.246094 915.964844 116.195312 915.996094 C 116.167969 916.011719 116.144531 916.011719 116.121094 916.027344 C 116.082031 916.050781 116.050781 916.085938 116.019531 916.109375 C 115.503906 916.421875 115.03125 916.785156 114.621094 917.203125 C 114.582031 917.242188 114.546875 917.289062 114.507812 917.328125 C 114.097656 917.761719 113.730469 918.234375 113.433594 918.753906 C 113.414062 918.789062 113.394531 918.832031 113.371094 918.867188 C 113.082031 919.398438 112.84375 919.960938 112.683594 920.550781 C 112.675781 920.578125 112.675781 920.601562 112.664062 920.628906 C 112.511719 921.238281 112.421875 921.871094 112.421875 922.523438 L 112.421875 1094.824219 C 112.421875 1097.585938 113.925781 1100.128906 116.347656 1101.449219 L 273.835938 1187.597656 C 273.90625 1187.640625 273.984375 1187.65625 274.058594 1187.691406 C 274.351562 1187.816406 274.640625 1187.929688 274.9375 1188.03125 C 275.136719 1188.105469 275.332031 1188.214844 275.542969 1188.273438 C 276.167969 1188.4375 276.8125 1188.527344 277.457031 1188.527344 C 278.101562 1188.527344 278.746094 1188.4375 279.375 1188.273438 C 279.578125 1188.214844 279.773438 1188.105469 279.976562 1188.03125 C 280.273438 1187.929688 280.566406 1187.816406 280.851562 1187.691406 C 280.925781 1187.65625 281.003906 1187.640625 281.078125 1187.597656 L 423.804688 1109.523438 L 408.457031 1100.714844 L 285.007812 1168.242188 " fill-opacity="1" fill-rule="nonzero"/></g><path fill="#082660" d="M 899.867188 828.410156 L 757.472656 906.300781 L 757.472656 751.207031 L 850.1875 700.488281 L 899.867188 673.316406 Z M 599.984375 673.316406 L 644.796875 697.832031 L 742.375 751.207031 L 742.375 906.300781 L 599.984375 828.410156 Z M 749.925781 583.03125 L 891.683594 660.582031 L 749.925781 738.128906 L 608.167969 660.582031 Z M 914.703125 658.617188 C 914.542969 658.023438 914.300781 657.457031 914.011719 656.933594 C 913.988281 656.894531 913.972656 656.847656 913.949219 656.8125 C 913.652344 656.296875 913.292969 655.828125 912.882812 655.394531 C 912.835938 655.347656 912.800781 655.304688 912.761719 655.261719 C 912.351562 654.847656 911.878906 654.480469 911.371094 654.167969 C 911.332031 654.144531 911.304688 654.109375 911.261719 654.089844 C 911.242188 654.070312 911.210938 654.070312 911.1875 654.054688 C 911.136719 654.027344 911.09375 653.984375 911.039062 653.957031 L 753.546875 567.804688 C 751.292969 566.570312 748.558594 566.570312 746.304688 567.804688 L 588.816406 653.957031 C 588.757812 653.984375 588.714844 654.027344 588.660156 654.054688 C 588.640625 654.070312 588.609375 654.070312 588.585938 654.089844 C 588.546875 654.109375 588.519531 654.144531 588.480469 654.167969 C 587.972656 654.480469 587.5 654.847656 587.089844 655.261719 C 587.046875 655.304688 587.015625 655.347656 586.972656 655.394531 C 586.558594 655.828125 586.199219 656.300781 585.902344 656.8125 C 585.878906 656.847656 585.863281 656.886719 585.839844 656.929688 C 585.546875 657.457031 585.308594 658.023438 585.148438 658.617188 C 585.144531 658.636719 585.144531 658.660156 585.136719 658.691406 C 584.976562 659.300781 584.886719 659.933594 584.886719 660.582031 L 584.886719 832.886719 C 584.886719 835.644531 586.390625 838.1875 588.816406 839.511719 L 746.304688 925.660156 C 746.375 925.703125 746.453125 925.714844 746.53125 925.75 C 746.816406 925.882812 747.109375 925.988281 747.40625 926.09375 C 747.609375 926.167969 747.796875 926.273438 748.007812 926.332031 C 748.636719 926.496094 749.28125 926.589844 749.925781 926.589844 C 750.570312 926.589844 751.214844 926.496094 751.839844 926.332031 C 752.046875 926.273438 752.242188 926.167969 752.445312 926.09375 C 752.742188 925.988281 753.03125 925.882812 753.316406 925.75 C 753.390625 925.714844 753.476562 925.703125 753.546875 925.660156 L 911.039062 839.511719 C 913.457031 838.1875 914.964844 835.644531 914.964844 832.886719 L 914.964844 660.582031 C 914.964844 659.933594 914.871094 659.300781 914.710938 658.691406 C 914.710938 658.660156 914.707031 658.636719 914.703125 658.617188 " fill-opacity="1" fill-rule="nonzero"/><g clip-path="url(#6aa53026d9)"><path fill="#082660" d="M 899.867188 1345.328125 L 757.472656 1423.214844 L 757.472656 1268.121094 L 846.882812 1219.214844 L 899.867188 1190.234375 Z M 599.984375 1190.234375 L 644.101562 1214.363281 L 742.375 1268.121094 L 742.375 1423.214844 L 599.984375 1345.328125 Z M 749.925781 1099.949219 L 891.683594 1177.496094 L 749.925781 1255.039062 L 731.960938 1245.214844 L 608.167969 1177.496094 Z M 914.703125 1175.527344 C 914.542969 1174.941406 914.300781 1174.375 914.011719 1173.847656 C 913.988281 1173.804688 913.972656 1173.765625 913.949219 1173.726562 C 913.652344 1173.214844 913.292969 1172.738281 912.882812 1172.308594 C 912.835938 1172.265625 912.800781 1172.222656 912.761719 1172.179688 C 912.347656 1171.765625 911.878906 1171.398438 911.367188 1171.082031 C 911.332031 1171.058594 911.304688 1171.023438 911.261719 1171 C 911.242188 1170.988281 911.21875 1170.984375 911.195312 1170.972656 C 911.136719 1170.9375 911.09375 1170.902344 911.039062 1170.871094 L 753.546875 1084.714844 C 751.292969 1083.484375 748.558594 1083.484375 746.304688 1084.714844 L 588.816406 1170.871094 C 588.757812 1170.902344 588.714844 1170.9375 588.65625 1170.972656 C 588.632812 1170.984375 588.609375 1170.988281 588.585938 1171 C 588.546875 1171.023438 588.519531 1171.058594 588.484375 1171.082031 C 587.972656 1171.398438 587.5 1171.765625 587.089844 1172.179688 C 587.046875 1172.222656 587.015625 1172.265625 586.972656 1172.308594 C 586.5625 1172.738281 586.199219 1173.214844 585.902344 1173.726562 C 585.878906 1173.765625 585.863281 1173.804688 585.839844 1173.847656 C 585.546875 1174.375 585.308594 1174.933594 585.148438 1175.527344 C 585.144531 1175.550781 585.144531 1175.578125 585.136719 1175.601562 C 584.976562 1176.210938 584.886719 1176.84375 584.886719 1177.496094 L 584.886719 1349.796875 C 584.886719 1352.558594 586.390625 1355.101562 588.816406 1356.421875 L 746.304688 1442.578125 C 746.375 1442.617188 746.453125 1442.628906 746.53125 1442.667969 C 746.816406 1442.792969 747.109375 1442.90625 747.40625 1443.011719 C 747.609375 1443.078125 747.796875 1443.191406 748.007812 1443.242188 C 748.636719 1443.410156 749.28125 1443.5 749.925781 1443.5 C 750.570312 1443.5 751.214844 1443.410156 751.839844 1443.242188 C 752.046875 1443.191406 752.242188 1443.078125 752.445312 1443.011719 C 752.738281 1442.90625 753.03125 1442.792969 753.316406 1442.667969 C 753.398438 1442.628906 753.476562 1442.617188 753.546875 1442.578125 L 911.039062 1356.421875 C 913.457031 1355.101562 914.964844 1352.558594 914.964844 1349.796875 L 914.964844 1177.496094 C 914.964844 1176.84375 914.871094 1176.210938 914.710938 1175.601562 C 914.710938 1175.578125 914.707031 1175.550781 914.703125 1175.527344 " fill-opacity="1" fill-rule="nonzero"/></g><g clip-path="url(#141b9deff7)"><path fill="#082660" d="M 1372.332031 573.4375 L 1229.941406 651.328125 L 1229.941406 496.234375 L 1319.351562 447.324219 L 1372.332031 418.34375 Z M 1222.390625 328.058594 L 1364.148438 405.605469 L 1267.390625 458.539062 L 1222.390625 483.15625 L 1208.023438 475.292969 L 1080.632812 405.605469 Z M 1387.179688 403.710938 C 1387.175781 403.6875 1387.175781 403.660156 1387.167969 403.636719 C 1387.007812 403.050781 1386.769531 402.484375 1386.476562 401.957031 C 1386.457031 401.914062 1386.4375 401.875 1386.414062 401.835938 C 1386.121094 401.324219 1385.761719 400.847656 1385.34375 400.414062 C 1385.308594 400.375 1385.269531 400.332031 1385.230469 400.289062 C 1384.820312 399.875 1384.347656 399.507812 1383.832031 399.195312 C 1383.796875 399.171875 1383.769531 399.132812 1383.730469 399.117188 C 1383.707031 399.097656 1383.683594 399.09375 1383.660156 399.082031 C 1383.605469 399.054688 1383.558594 399.011719 1383.507812 398.984375 L 1226.011719 312.832031 C 1223.753906 311.59375 1221.023438 311.59375 1218.765625 312.832031 L 1061.28125 398.984375 C 1061.226562 399.011719 1061.179688 399.054688 1061.125 399.082031 C 1061.101562 399.09375 1061.078125 399.097656 1061.054688 399.117188 C 1061.015625 399.132812 1060.988281 399.171875 1060.953125 399.195312 C 1060.4375 399.507812 1059.964844 399.875 1059.554688 400.289062 C 1059.515625 400.332031 1059.476562 400.375 1059.441406 400.414062 C 1059.03125 400.847656 1058.664062 401.324219 1058.371094 401.835938 C 1058.347656 401.875 1058.328125 401.914062 1058.304688 401.957031 C 1058.015625 402.484375 1057.777344 403.050781 1057.617188 403.636719 C 1057.609375 403.660156 1057.605469 403.6875 1057.597656 403.710938 C 1057.445312 404.320312 1057.355469 404.960938 1057.355469 405.605469 L 1057.355469 558.816406 L 1072.453125 550.152344 L 1072.453125 418.34375 L 1116.574219 442.476562 L 1214.84375 496.234375 L 1214.84375 651.328125 L 1103.710938 590.535156 L 1088.355469 599.34375 L 1218.765625 670.6875 C 1218.839844 670.726562 1218.925781 670.742188 1218.996094 670.777344 C 1219.285156 670.902344 1219.582031 671.015625 1219.871094 671.121094 C 1220.078125 671.195312 1220.269531 671.300781 1220.472656 671.359375 C 1221.105469 671.523438 1221.75 671.609375 1222.390625 671.609375 C 1223.035156 671.609375 1223.679688 671.523438 1224.308594 671.359375 C 1224.511719 671.300781 1224.707031 671.195312 1224.90625 671.121094 C 1225.203125 671.015625 1225.5 670.902344 1225.785156 670.777344 C 1225.863281 670.742188 1225.9375 670.726562 1226.011719 670.6875 L 1383.507812 584.53125 C 1385.925781 583.210938 1387.429688 580.671875 1387.429688 577.914062 L 1387.429688 405.605469 C 1387.429688 404.960938 1387.339844 404.320312 1387.179688 403.710938 " fill-opacity="1" fill-rule="nonzero"/></g><g clip-path="url(#c3c1a64961)"><path fill="#082660" d="M 1372.332031 1090.347656 L 1229.941406 1168.242188 L 1229.941406 1013.148438 L 1301.351562 974.085938 L 1372.332031 935.253906 Z M 1387.167969 920.550781 C 1387.007812 919.960938 1386.769531 919.398438 1386.476562 918.867188 C 1386.457031 918.832031 1386.4375 918.789062 1386.414062 918.753906 C 1386.121094 918.234375 1385.761719 917.761719 1385.34375 917.328125 C 1385.308594 917.289062 1385.269531 917.242188 1385.230469 917.203125 C 1384.820312 916.785156 1384.347656 916.421875 1383.832031 916.109375 C 1383.796875 916.085938 1383.769531 916.050781 1383.730469 916.027344 C 1383.707031 916.011719 1383.683594 916.011719 1383.65625 915.996094 C 1383.605469 915.964844 1383.558594 915.925781 1383.507812 915.898438 L 1247.546875 841.523438 L 1247.457031 858.6875 L 1364.148438 922.523438 L 1222.390625 1000.066406 L 1080.632812 922.523438 L 1196.871094 858.9375 L 1196.960938 841.671875 L 1061.28125 915.898438 C 1061.226562 915.925781 1061.179688 915.964844 1061.125 915.996094 C 1061.105469 916.011719 1061.078125 916.011719 1061.054688 916.027344 C 1061.015625 916.050781 1060.988281 916.085938 1060.945312 916.109375 C 1060.4375 916.421875 1059.964844 916.785156 1059.554688 917.203125 C 1059.515625 917.242188 1059.476562 917.289062 1059.441406 917.328125 C 1059.03125 917.761719 1058.664062 918.234375 1058.371094 918.75 C 1058.347656 918.789062 1058.328125 918.832031 1058.304688 918.875 C 1058.015625 919.398438 1057.777344 919.960938 1057.617188 920.550781 C 1057.609375 920.578125 1057.605469 920.601562 1057.597656 920.628906 C 1057.445312 921.238281 1057.355469 921.871094 1057.355469 922.523438 L 1057.355469 1061.925781 L 1072.453125 1053.257812 L 1072.453125 935.253906 L 1140.382812 972.414062 L 1214.84375 1013.148438 L 1214.84375 1168.242188 L 1091.394531 1100.710938 L 1076.042969 1109.523438 L 1218.765625 1187.597656 C 1218.839844 1187.640625 1218.925781 1187.65625 1218.996094 1187.691406 C 1219.285156 1187.816406 1219.574219 1187.929688 1219.867188 1188.03125 C 1220.070312 1188.105469 1220.265625 1188.214844 1220.476562 1188.273438 C 1221.105469 1188.4375 1221.75 1188.527344 1222.390625 1188.527344 C 1223.035156 1188.527344 1223.679688 1188.4375 1224.308594 1188.273438 C 1224.519531 1188.214844 1224.707031 1188.105469 1224.914062 1188.03125 C 1225.203125 1187.929688 1225.5 1187.816406 1225.785156 1187.691406 C 1225.859375 1187.65625 1225.9375 1187.640625 1226.011719 1187.597656 L 1383.507812 1101.449219 C 1385.925781 1100.128906 1387.429688 1097.585938 1387.429688 1094.824219 L 1387.429688 922.523438 C 1387.429688 921.871094 1387.339844 921.238281 1387.179688 920.628906 C 1387.175781 920.601562 1387.175781 920.578125 1387.167969 920.550781 " fill-opacity="1" fill-rule="nonzero"/></g><path fill="#082660" d="M 1221.492188 934.371094 C 1221.59375 934.371094 1221.691406 934.371094 1221.789062 934.367188 C 1226.59375 934.210938 1230.5 930.273438 1230.511719 925.574219 L 1230.910156 849.632812 L 1231.003906 832.46875 L 1231.667969 704.800781 C 1231.679688 700.199219 1227.957031 696.566406 1223.289062 696.566406 C 1223.191406 696.566406 1223.09375 696.574219 1222.996094 696.574219 C 1218.191406 696.730469 1214.285156 700.667969 1214.273438 705.371094 L 1213.605469 832.570312 L 1213.515625 849.832031 L 1213.109375 926.144531 C 1213.109375 927.621094 1213.492188 928.996094 1214.164062 930.1875 C 1215.589844 932.699219 1218.328125 934.371094 1221.492188 934.371094 " fill-opacity="1" fill-rule="nonzero"/><path fill="#082660" d="M 278.0625 696.574219 C 273.257812 696.730469 269.351562 700.667969 269.339844 705.371094 L 268.671875 832.570312 L 268.582031 849.832031 L 268.179688 926.144531 C 268.175781 927.621094 268.558594 928.996094 269.230469 930.1875 C 270.65625 932.699219 273.394531 934.371094 276.5625 934.371094 C 276.660156 934.371094 276.757812 934.371094 276.859375 934.367188 C 281.660156 934.210938 285.566406 930.273438 285.578125 925.574219 L 285.976562 849.632812 L 286.066406 832.46875 L 286.742188 704.800781 C 286.753906 700.199219 283.023438 696.566406 278.351562 696.566406 C 278.257812 696.566406 278.160156 696.574219 278.0625 696.574219 " fill-opacity="1" fill-rule="nonzero"/><path fill="#082660" d="M 466.363281 402.484375 C 467.734375 402.484375 469.117188 402.136719 470.394531 401.40625 L 592.269531 331.453125 L 607.625 322.636719 L 661.871094 291.5 C 665.957031 289.167969 667.453125 283.832031 665.21875 279.574219 C 663.691406 276.652344 660.800781 275.003906 657.824219 275.003906 C 656.457031 275.003906 655.070312 275.351562 653.789062 276.082031 L 599.984375 306.964844 L 584.886719 315.628906 L 462.308594 385.992188 C 458.226562 388.324219 456.726562 393.660156 458.964844 397.917969 C 460.496094 400.832031 463.382812 402.484375 466.363281 402.484375 " fill-opacity="1" fill-rule="nonzero"/><path fill="#082660" d="M 899.867188 306.964844 L 846.0625 276.082031 C 844.78125 275.351562 843.394531 275.003906 842.027344 275.003906 C 839.050781 275.003906 836.160156 276.652344 834.625 279.574219 C 832.390625 283.832031 833.894531 289.167969 837.976562 291.5 L 892.226562 322.636719 L 907.578125 331.453125 L 1029.449219 401.40625 C 1030.734375 402.136719 1032.117188 402.484375 1033.488281 402.484375 C 1036.46875 402.484375 1039.355469 400.832031 1040.886719 397.917969 C 1043.117188 393.660156 1041.625 388.324219 1037.535156 385.992188 L 914.964844 315.628906 L 899.867188 306.964844 " fill-opacity="1" fill-rule="nonzero"/><path fill="#082660" d="M 1086.636719 581.195312 L 1157.136719 540.730469 C 1161.21875 538.40625 1162.71875 533.066406 1160.484375 528.808594 C 1158.953125 525.890625 1156.0625 524.242188 1153.082031 524.242188 C 1151.71875 524.242188 1150.328125 524.589844 1149.050781 525.320312 L 1072.453125 569.285156 L 1057.355469 577.945312 L 957.574219 635.226562 C 953.492188 637.554688 951.992188 642.894531 954.226562 647.148438 C 955.753906 650.070312 958.644531 651.722656 961.621094 651.722656 C 962.988281 651.722656 964.375 651.375 965.65625 650.644531 L 1071.289062 590.011719 L 1086.636719 581.195312 " fill-opacity="1" fill-rule="nonzero"/><path fill="#082660" d="M 557.707031 1147.195312 L 442.496094 1081.0625 L 427.398438 1072.394531 L 366.234375 1037.289062 C 364.953125 1036.554688 363.566406 1036.203125 362.199219 1036.203125 C 359.214844 1036.203125 356.332031 1037.859375 354.796875 1040.777344 C 352.5625 1045.03125 354.0625 1050.375 358.144531 1052.699219 L 425.523438 1091.375 L 440.464844 1099.949219 L 549.621094 1162.609375 C 550.90625 1163.34375 552.289062 1163.691406 553.660156 1163.691406 C 556.636719 1163.691406 559.527344 1162.039062 561.058594 1159.117188 C 563.289062 1154.863281 561.789062 1149.523438 557.707031 1147.195312 " fill-opacity="1" fill-rule="nonzero"/><path fill="#082660" d="M 1145.054688 1040.777344 C 1143.519531 1037.859375 1140.632812 1036.203125 1137.652344 1036.203125 C 1136.285156 1036.203125 1134.898438 1036.554688 1133.617188 1037.289062 L 1072.453125 1072.394531 L 1057.355469 1081.0625 L 942.144531 1147.195312 C 938.0625 1149.523438 936.554688 1154.863281 938.792969 1159.117188 C 940.324219 1162.039062 943.210938 1163.691406 946.191406 1163.691406 C 947.5625 1163.691406 948.945312 1163.34375 950.230469 1162.609375 L 1059.382812 1099.949219 L 1074.328125 1091.375 L 1141.699219 1052.699219 C 1145.785156 1050.375 1147.289062 1045.03125 1145.054688 1040.777344 " fill-opacity="1" fill-rule="nonzero"/><path fill="#082660" d="M 557.707031 635.226562 L 442.496094 569.09375 L 427.398438 560.425781 L 366.234375 525.320312 C 364.953125 524.589844 363.566406 524.242188 362.199219 524.242188 C 359.214844 524.242188 356.332031 525.890625 354.796875 528.808594 C 352.5625 533.066406 354.0625 538.40625 358.144531 540.730469 L 421.109375 576.875 L 436.464844 585.691406 L 549.621094 650.644531 C 550.90625 651.375 552.289062 651.722656 553.660156 651.722656 C 556.636719 651.722656 559.527344 650.070312 561.058594 647.148438 C 563.289062 642.894531 561.789062 637.554688 557.707031 635.226562 " fill-opacity="1" fill-rule="nonzero"/><path fill="#082660" d="M 949.203125 842.753906 C 948.078125 842.117188 946.855469 841.808594 945.65625 841.808594 C 943.035156 841.808594 940.492188 843.261719 939.140625 845.832031 C 937.171875 849.574219 938.496094 854.273438 942.085938 856.324219 L 1029.898438 907.9375 C 1031.027344 908.578125 1032.25 908.882812 1033.453125 908.882812 C 1036.074219 908.882812 1038.617188 907.429688 1039.964844 904.859375 C 1041.929688 901.117188 1040.609375 896.421875 1037.015625 894.367188 L 949.203125 842.753906 " fill-opacity="1" fill-rule="nonzero"/><path fill="#082660" d="M 748.785156 434.214844 C 744.558594 434.421875 741.179688 437.933594 741.230469 442.074219 L 741.082031 539.1875 C 741.097656 540.484375 741.453125 541.695312 742.0625 542.734375 C 743.335938 544.894531 745.707031 546.320312 748.449219 546.320312 C 748.574219 546.320312 748.699219 546.320312 748.824219 546.3125 C 753.050781 546.109375 756.4375 542.597656 756.386719 538.457031 L 756.527344 441.34375 C 756.484375 437.335938 753.214844 434.210938 749.160156 434.210938 C 749.035156 434.210938 748.910156 434.210938 748.785156 434.214844 " fill-opacity="1" fill-rule="nonzero"/><path fill="#082660" d="M 748.785156 1062.597656 C 748.910156 1062.605469 749.035156 1062.605469 749.160156 1062.605469 C 753.214844 1062.605469 756.484375 1059.480469 756.527344 1055.472656 L 756.386719 958.359375 C 756.4375 954.21875 753.050781 950.699219 748.824219 950.5 C 748.699219 950.496094 748.574219 950.496094 748.449219 950.496094 C 745.710938 950.496094 743.335938 951.921875 742.0625 954.082031 C 741.453125 955.121094 741.097656 956.328125 741.082031 957.628906 L 741.230469 1054.742188 C 741.179688 1058.882812 744.558594 1062.394531 748.785156 1062.597656 " fill-opacity="1" fill-rule="nonzero"/><path fill="#082660" d="M 466.398438 908.882812 C 467.601562 908.882812 468.820312 908.578125 469.949219 907.9375 L 557.765625 856.324219 C 561.355469 854.273438 562.671875 849.574219 560.710938 845.832031 C 559.359375 843.261719 556.816406 841.808594 554.195312 841.808594 C 552.992188 841.808594 551.769531 842.117188 550.640625 842.753906 L 462.835938 894.367188 C 459.242188 896.421875 457.917969 901.117188 459.886719 904.859375 C 461.234375 907.429688 463.777344 908.882812 466.398438 908.882812 " fill-opacity="1" fill-rule="nonzero"/><g clip-path="url(#29770131bf)"><path fill="#082660" d="M 981.414062 716.847656 L 751.09375 805.457031 C 652.117188 766.964844 551.722656 730.988281 453.375 691.082031 C 446.933594 688.414062 436.09375 687 440.960938 677.886719 L 747.796875 563.824219 L 752.507812 563.824219 C 752.507812 563.824219 1059.65625 678.042969 1059.65625 678.042969 C 1061.226562 680.085938 1061.070312 685.898438 1058.242188 687 L 998.539062 709.9375 L 996.65625 712.292969 L 996.65625 804.042969 C 1013.152344 810.800781 1013.308594 831.695312 998.539062 840.808594 C 1003.722656 852.589844 1007.652344 865.003906 1010.007812 877.726562 C 1012.207031 889.511719 1014.878906 906.480469 1015.351562 918.417969 C 1015.664062 923.917969 1012.992188 926.589844 1008.910156 929.886719 C 997.910156 938.6875 982.199219 938.84375 970.730469 930.671875 C 961.460938 923.917969 963.347656 918.578125 964.289062 908.363281 C 966.488281 886.054688 970.417969 862.332031 979.53125 841.90625 C 977.171875 838.136719 973.089844 835.9375 971.203125 831.695312 C 966.332031 821.324219 970.574219 809.070312 981.257812 804.988281 L 981.257812 717.320312 Z M 981.414062 716.847656 " fill-opacity="1" fill-rule="nonzero"/></g><path fill="#082660" d="M 585.1875 758.640625 C 587.703125 757.855469 594.613281 761.152344 597.597656 762.097656 C 645.046875 778.90625 692.492188 801.53125 739.941406 817.242188 C 750.308594 820.699219 751.566406 820.382812 761.933594 817.085938 C 810.480469 800.902344 858.554688 776.707031 907.101562 760.523438 C 909.773438 759.582031 912.445312 758.167969 915.273438 758.640625 C 918.101562 759.582031 922.34375 780.792969 923.285156 784.71875 C 926.585938 799.960938 929.882812 817.871094 931.769531 833.265625 C 932.238281 837.351562 933.183594 840.964844 930.984375 844.890625 C 928.46875 849.292969 910.714844 858.71875 905.21875 861.703125 C 872.382812 879.769531 833.890625 896.425781 798.070312 907.734375 C 778.273438 914.019531 758.636719 921.402344 737.738281 917.320312 C 690.765625 908.207031 622.894531 879.300781 581.730469 854.632812 C 572.933594 849.292969 568.691406 849.605469 569.164062 838.136719 C 569.949219 820.382812 575.761719 793.359375 579.847656 775.609375 C 580.472656 772.621094 582.832031 759.425781 585.1875 758.640625 Z M 585.1875 758.640625 " fill-opacity="1" fill-rule="nonzero"/></svg>